<?xml version="1.0" encoding="UTF-8"?>
<svg width="17px" height="17px" viewBox="0 0 17 17" version="1.1" xmlns="http://www.w3.org/2000/svg" xmlns:xlink="http://www.w3.org/1999/xlink">
    <!-- Generator: Sketch 47.1 (45422) - http://www.bohemiancoding.com/sketch -->
    <title>Instagram_Color</title>
    <desc>Created with Sketch.</desc>
    <defs>
        <path d="M0,7.5 C0,3.35786417 3.35786417,0 7.5,0 C11.6421358,0 15,3.35786417 15,7.5 C15,11.6421358 11.6421358,15 7.5,15 C3.35786417,15 0,11.6421358 0,7.5 Z" id="path-1"></path>
    </defs>
    <g id="Detail-Page-PB" stroke="none" stroke-width="1" fill="none" fill-rule="evenodd">
        <g id="DP_Static" transform="translate(-798.000000, -2625.000000)">
            <g id="Social-Media-Icons" transform="translate(698.000000, 2626.000000)">
                <g id="Instagram" transform="translate(101.000000, 0.000000)">
                    <mask id="mask-2" fill="white">
                        <use xlink:href="#path-1"></use>
                    </mask>
                    <use id="back" stroke="#FFFFFF" xlink:href="#path-1"></use>
                    <path d="M7.500375,3.5 C6.41403035,3.5 6.2776956,3.50475005 5.85102449,3.52416692 C5.42518672,3.54366712 5.13451703,3.61108449 4.88018104,3.71000219 C4.61709497,3.81216992 4.39392598,3.94883801 4.17159033,4.17125699 C3.94908801,4.39359264 3.81241992,4.61676163 3.70991885,4.87976437 C3.61075115,5.13418369 3.54325045,5.42493672 3.52408358,5.85060782 C3.50500005,6.27727893 3.5,6.41369702 3.5,7.50004167 C3.5,8.58638632 3.50483338,8.7223044 3.52416692,9.14897551 C3.54375046,9.57481328 3.61116782,9.86548297 3.71000219,10.119819 C3.81225325,10.382905 3.94892134,10.606074 4.17134033,10.8284097 C4.39359264,11.050912 4.61676163,11.1879134 4.87968104,11.2900811 C5.13418369,11.3889988 5.42493672,11.4564162 5.85069115,11.4759164 C6.27736226,11.4953333 6.41361368,11.5000833 7.499875,11.5000833 C8.58630298,11.5000833 8.72222106,11.4953333 9.14889218,11.4759164 C9.57472995,11.4564162 9.86573298,11.3889988 10.1202356,11.2900811 C10.3832384,11.1879134 10.606074,11.050912 10.8283263,10.8284097 C11.0508287,10.606074 11.1874967,10.382905 11.2899978,10.1199023 C11.3883322,9.86548297 11.4558329,9.57472995 11.4758331,9.14905884 C11.4949999,8.72238773 11.5,8.58638632 11.5,7.50004167 C11.5,6.41369702 11.4949999,6.27736226 11.4758331,5.85069115 C11.4558329,5.42485338 11.3883322,5.13418369 11.2899978,4.87984771 C11.1874967,4.61676163 11.0508287,4.39359264 10.8283263,4.17125699 C10.605824,3.94875467 10.3833217,3.81208658 10.1199856,3.71000219 C9.86498297,3.61108449 9.57414661,3.54366712 9.14830884,3.52416692 C8.72163773,3.50475005 8.58580298,3.5 7.49912499,3.5 L7.500375,3.5 Z M7.14153793,4.22084084 C7.24803904,4.22067417 7.36687361,4.22084084 7.500375,4.22084084 C8.56838613,4.22084084 8.69497078,4.22467422 9.11672517,4.24384108 C9.50672924,4.2616746 9.71839811,4.32684195 9.85939958,4.38159252 C10.0460682,4.45409327 10.1791529,4.54076084 10.319071,4.6807623 C10.4590725,4.82076376 10.5457401,4.95409848 10.6184075,5.14076709 C10.6731581,5.28160189 10.7384087,5.49327076 10.7561589,5.88327483 C10.7753258,6.30494588 10.7794925,6.43161387 10.7794925,7.49912499 C10.7794925,8.56663611 10.7753258,8.6933041 10.7561589,9.11497516 C10.7383254,9.50497922 10.6731581,9.71664809 10.6184075,9.85748289 C10.5459067,10.0441515 10.4590725,10.1770696 10.319071,10.3169877 C10.1790696,10.4569891 10.0461515,10.5436567 9.85939958,10.6161575 C9.71856478,10.671158 9.50672924,10.7361587 9.11672517,10.7539922 C8.69505412,10.7731591 8.56838613,10.7773258 7.500375,10.7773258 C6.43228054,10.7773258 6.30569589,10.7731591 5.88402483,10.7539922 C5.49402077,10.735992 5.2823519,10.6708247 5.1412671,10.6160741 C4.95459849,10.5435734 4.82126376,10.4569058 4.6812623,10.3169043 C4.54126085,10.1769029 4.45459328,10.0439015 4.38192585,9.85714955 C4.32717528,9.71631475 4.2619246,9.50464588 4.24417442,9.11464182 C4.22500755,8.69297076 4.22117418,8.56630277 4.22117418,7.49812498 C4.22117418,6.42994719 4.22500755,6.30394587 4.24417442,5.88227482 C4.26200794,5.49227075 4.32717528,5.28060188 4.38192585,5.13960041 C4.45442661,4.9529318 4.54126085,4.81959708 4.6812623,4.67959562 C4.82126376,4.53959416 4.95459849,4.45292659 5.1412671,4.38025917 C5.28226857,4.3252586 5.49402077,4.26025792 5.88402483,4.24234107 C6.25302868,4.22567423 6.39603017,4.22067417 7.14153793,4.21984083 L7.14153793,4.22084084 Z M9.63556391,4.88501443 C9.37056115,4.88501443 9.15555891,5.09976666 9.15555891,5.36485276 C9.15555891,5.62985552 9.37056115,5.84485776 9.63556391,5.84485776 C9.90056667,5.84485776 10.1155689,5.62985552 10.1155689,5.36485276 C10.1155689,5.09985 9.90056667,4.88484776 9.63556391,4.88484776 L9.63556391,4.88501443 Z M7.500375,5.4458536 C6.36594652,5.4458536 5.44618694,6.36561318 5.44618694,7.50004167 C5.44618694,8.63447015 6.36594652,9.55381306 7.500375,9.55381306 C8.63480349,9.55381306 9.55422973,8.63447015 9.55422973,7.50004167 C9.55422973,6.36561318 8.63472015,5.4458536 7.50029167,5.4458536 L7.500375,5.4458536 Z M7.500375,6.16669444 C8.23671601,6.16669444 8.83372223,6.76361733 8.83372223,7.50004167 C8.83372223,8.23638267 8.23671601,8.83338889 7.500375,8.83338889 C6.76395067,8.83338889 6.16702778,8.23638267 6.16702778,7.50004167 C6.16702778,6.76361733 6.76395067,6.16669444 7.500375,6.16669444 L7.500375,6.16669444 Z" id="Shape" fill="#FFFFFF" mask="url(#mask-2)"></path>
                </g>
            </g>
        </g>
    </g>
</svg>