<?xml version="1.0" encoding="UTF-8"?>
<svg width="17px" height="17px" viewBox="0 0 17 17" version="1.1" xmlns="http://www.w3.org/2000/svg" xmlns:xlink="http://www.w3.org/1999/xlink">
    <!-- Generator: Sketch 47.1 (45422) - http://www.bohemiancoding.com/sketch -->
    <title>LinkedIN_White</title>
    <desc>Created with Sketch.</desc>
    <defs></defs>
    <g id="Detail-Page-PB" stroke="none" stroke-width="1" fill="none" fill-rule="evenodd">
        <g id="DP_Static" transform="translate(-738.000000, -2625.000000)">
            <g id="Social-Media-Icons" transform="translate(698.000000, 2626.000000)">
                <g id="LinkedIN" transform="translate(41.000000, 0.000000)">
                    <path d="M0,7.5 C0,3.35786417 3.35786417,0 7.5,0 C11.6421358,0 15,3.35786417 15,7.5 C15,11.6421358 11.6421358,15 7.5,15 C3.35786417,15 0,11.6421358 0,7.5 Z" id="Combined-Shape" stroke="#FFFFFF"></path>
                    <polygon id="Combined-Shape" fill="#FFFFFF" points="5.30016937 6.2118276 3.60050535 6.2118276 3.60050535 11.3186124 5.30016937 11.3186124"></polygon>
                    <path d="M5.41211353,4.63209303 C5.40108204,4.13137602 5.04301686,3.75 4.46157251,3.75 C3.88012816,3.75 3.5,4.13137602 3.5,4.63209303 C3.5,5.12243847 3.86889301,5.51479616 4.43950953,5.51479616 L4.4503713,5.51479616 C5.04301686,5.51479616 5.41211353,5.12243847 5.41211353,4.63209303 Z" id="Combined-Shape" fill="#FFFFFF"></path>
                    <path d="M11.429808,8.39053807 C11.429808,6.82195465 10.591313,6.0919104 9.47285571,6.0919104 C8.57044593,6.0919104 8.16642187,6.5875772 7.9408364,6.93529641 L7.9408364,6.21196317 L6.24096873,6.21196317 C6.26337114,6.69115746 6.24096873,11.318748 6.24096873,11.318748 L7.9408364,11.318748 L7.9408364,8.46669804 C7.9408364,8.31407306 7.95186789,8.16182092 7.99680848,8.05254646 C8.11964836,7.74763545 8.39933904,7.43194614 8.86890712,7.43194614 C9.48419269,7.43194614 9.73014399,7.90022653 9.73014399,8.58647966 L9.73014399,11.3186124 L11.4297401,11.3186124 L11.429808,8.39053807 Z" id="Combined-Shape" fill="#FFFFFF"></path>
                </g>
            </g>
        </g>
    </g>
</svg>