<?xml version="1.0" encoding="UTF-8"?>
<svg width="17px" height="17px" viewBox="0 0 17 17" version="1.1" xmlns="http://www.w3.org/2000/svg" xmlns:xlink="http://www.w3.org/1999/xlink">
    <!-- Generator: Sketch 47.1 (45422) - http://www.bohemiancoding.com/sketch -->
    <title>Mail_Color</title>
    <desc>Created with Sketch.</desc>
    <defs>
        <path d="M0,7.5 C0,3.35786417 3.35786417,0 7.5,0 C11.6421358,0 15,3.35786417 15,7.5 C15,11.6421358 11.6421358,15 7.5,15 C3.35786417,15 0,11.6421358 0,7.5 Z" id="path-1"></path>
    </defs>
    <g id="Detail-Page-PB" stroke="none" stroke-width="1" fill="none" fill-rule="evenodd">
        <g id="DP_Static" transform="translate(-818.000000, -2625.000000)">
            <g id="Social-Media-Icons" transform="translate(698.000000, 2626.000000)">
                <g id="Mail" transform="translate(121.000000, 0.000000)">
                    <mask id="mask-2" fill="white">
                        <use xlink:href="#path-1"></use>
                    </mask>
                    <use id="back" stroke="#FFFFFF" xlink:href="#path-1"></use>
                    <g id="Group" mask="url(#mask-2)">
                        <g transform="translate(2.500000, 4.000000)">
                            <path d="M1.25,0.625 L8.75,0.625 L8.75,0.625 C9.09517797,0.625 9.375,0.904822031 9.375,1.25 L9.375,6.25 L9.375,6.25 C9.375,6.59517797 9.09517797,6.875 8.75,6.875 L5.02760939,6.875 L1.56860847,9.70451487 L2.18199839,6.875 L1.25,6.875 L1.25,6.875 C0.904822031,6.875 0.625,6.59517797 0.625,6.25 L0.625,1.25 L0.625,1.25 C0.625,0.904822031 0.904822031,0.625 1.25,0.625 Z" id="Rectangle-3" stroke="none" fill="#FFFFFF" fill-rule="evenodd"></path>
                            <polyline id="Line-6" stroke="#112E51" stroke-width="0.625" fill="none" stroke-linecap="square" points="0.222140361 0.123772932 5.01355773 4.49174696 9.46424722 0.524195466"></polyline>
                            <path d="M9.48637111,6.85770798 L6.25,3.75" id="Line-7" stroke="#112E51" stroke-width="0.625" fill="none" stroke-linecap="square"></path>
                            <path d="M3.59443954,7.07037639 C3.59443954,7.07037639 2.47389426,6.00912712 0.232803679,3.88662859" id="Line-7" stroke="#112E51" stroke-width="0.625" fill="none" stroke-linecap="square" transform="translate(1.913622, 5.478502) scale(-1, 1) translate(-1.913622, -5.478502) "></path>
                        </g>
                    </g>
                </g>
            </g>
        </g>
    </g>
</svg>