<?xml version="1.0" encoding="UTF-8"?>
<svg width="17px" height="17px" viewBox="0 0 17 17" version="1.1" xmlns="http://www.w3.org/2000/svg" xmlns:xlink="http://www.w3.org/1999/xlink">
    <!-- Generator: Sketch 47.1 (45422) - http://www.bohemiancoding.com/sketch -->
    <title>Twitter_White</title>
    <desc>Created with Sketch.</desc>
    <defs></defs>
    <g id="Detail-Page-PB" stroke="none" stroke-width="1" fill="none" fill-rule="evenodd">
        <g id="DP_Static" transform="translate(-718.000000, -2625.000000)">
            <g id="Social-Media-Icons" transform="translate(698.000000, 2626.000000)">
                <g id="Twitter" transform="translate(21.000000, 0.000000)">
                    <path d="M0,7.5 C0,3.35786417 3.35786417,0 7.5,0 C11.6421358,0 15,3.35786417 15,7.5 C15,11.6421358 11.6421358,15 7.5,15 C3.35786417,15 0,11.6421358 0,7.5 Z" id="Combined-Shape" stroke="#FFFFFF"></path>
                    <path d="M7.27537582,6.09609395 L7.2911141,6.35561087 L7.02880936,6.32383328 C6.07402007,6.20201922 5.23989097,5.78891065 4.53166815,5.09510011 L4.18542588,4.75084297 L4.09624227,5.00506363 C3.90738285,5.57176384 4.02804303,6.17024164 4.42150016,6.57275768 C4.63134395,6.79520075 4.5841291,6.82697833 4.22214855,6.69457174 C4.09624227,6.65220163 3.98607427,6.62042405 3.97558208,6.63631284 C3.93885942,6.67338669 4.0647657,7.15534668 4.1644415,7.34601217 C4.30083997,7.61082536 4.57888301,7.87034228 4.88315651,8.02393393 L5.14021517,8.14574799 L4.83594166,8.15104425 C4.54216034,8.15104425 4.53166815,8.15634052 4.56314472,8.26756205 C4.66806662,8.61181919 5.08250812,8.97726139 5.54416448,9.1361493 L5.86942237,9.24737084 L5.58613324,9.41685127 C5.16644564,9.6604794 4.67331271,9.79818226 4.18017979,9.80877479 C3.94410551,9.81407105 3.75,9.8352561 3.75,9.85114489 C3.75,9.90410753 4.39002359,10.2006983 4.76249633,10.3172161 C5.87991456,10.6614732 7.20717659,10.5131779 8.20393463,9.92529259 C8.91215745,9.50688776 9.62038027,8.67537436 9.95088425,7.87034228 C10.1292515,7.44134492 10.3076187,6.6574979 10.3076187,6.28146317 C10.3076187,6.03783505 10.323357,6.00605746 10.6171383,5.71476296 C10.7902594,5.54528252 10.9528884,5.35991329 10.984365,5.30695066 C11.0368259,5.20632165 11.0315798,5.20632165 10.764029,5.29635813 C10.3181109,5.45524604 10.2551578,5.43406099 10.4754938,5.19572912 C10.6381227,5.02624868 10.8322282,4.71906539 10.8322282,4.62902891 C10.8322282,4.61314012 10.7535368,4.63962143 10.6643532,4.68728781 C10.5699235,4.74025044 10.3600797,4.8196944 10.2026968,4.86736077 L9.91940768,4.95739725 L9.66234903,4.78262055 C9.52070447,4.68728781 9.32135286,4.58136253 9.21643096,4.54958495 C8.94888012,4.47543726 8.53968471,4.48602979 8.29836434,4.57077001 C7.64260247,4.80910187 7.22816097,5.42346846 7.27537582,6.09609395 Z" id="Path" fill="#FFFFFF"></path>
                </g>
            </g>
        </g>
    </g>
</svg>