<?xml version="1.0" encoding="UTF-8"?>
<svg width="17px" height="17px" viewBox="0 0 17 17" version="1.1" xmlns="http://www.w3.org/2000/svg" xmlns:xlink="http://www.w3.org/1999/xlink">
    <!-- Generator: Sketch 47.1 (45422) - http://www.bohemiancoding.com/sketch -->
    <title>Youtube_White</title>
    <desc>Created with Sketch.</desc>
    <defs></defs>
    <g id="Detail-Page-PB" stroke="none" stroke-width="1" fill="none" fill-rule="evenodd">
        <g id="DP_Static" transform="translate(-758.000000, -2625.000000)">
            <g id="Social-Media-Icons" transform="translate(698.000000, 2626.000000)">
                <g id="Youtube" transform="translate(61.000000, 0.000000)">
                    <path d="M0,7.5 C0,3.35786417 3.30759007,0 7.38770966,0 C11.4678292,0 14.7754193,3.35786417 14.7754193,7.5 C14.7754193,11.6421358 11.4678292,15 7.38770966,15 C3.30759007,15 0,11.6421358 0,7.5 Z" id="Combined-Shape" stroke="#FFFFFF"></path>
                    <path d="M11.2327869,5.99033634 C11.2327869,5.99033634 11.1558197,5.4270116 10.92,5.17894433 C10.6207377,4.85321233 10.2853279,4.85167948 10.1316393,4.83277425 C9.0304918,4.75 7.37877049,4.75 7.37877049,4.75 L7.37532787,4.75 C7.37532787,4.75 5.72360656,4.75 4.62245902,4.83277425 C4.46852459,4.85167948 4.13336066,4.85321233 3.83385246,5.17894433 C3.59803279,5.4270116 3.52131148,5.99033634 3.52131148,5.99033634 C3.52131148,5.99033634 3.44262295,6.65201937 3.44262295,7.31344693 L3.44262295,7.93374284 C3.44262295,8.59542587 3.52131148,9.25685342 3.52131148,9.25685342 C3.52131148,9.25685342 3.59803279,9.82017817 3.83385246,10.0682454 C4.13336066,10.3939774 4.52655738,10.3837584 4.70163934,10.4177367 C5.33114754,10.4805838 7.37704918,10.5 7.37704918,10.5 C7.37704918,10.5 9.0304918,10.4974452 10.1316393,10.414671 C10.2853279,10.3955103 10.6207377,10.3939774 10.92,10.0682454 C11.1558197,9.82017817 11.2327869,9.25685342 11.2327869,9.25685342 C11.2327869,9.25685342 11.3114754,8.59542587 11.3114754,7.93374284 L11.3114754,7.31344693 C11.3114754,6.65201937 11.2327869,5.99033634 11.2327869,5.99033634 L11.2327869,5.99033634 Z" fill="#FFFFFF"></path>
                    <polygon id="Path" fill="#112E51" points="6.56459016 8.68535345 6.56434426 6.38836806 8.69040984 7.54082063"></polygon>
                </g>
            </g>
        </g>
    </g>
</svg>